<?xml version="1.0" encoding="UTF-8" standalone="no"?>
<!-- Created with Inkscape (http://www.inkscape.org/) -->

<svg
   version="1.1"
   id="svg2"
   width="250"
   height="75"
   viewBox="0 0 250 75"
   sodipodi:docname="logo - Copy.svg"
   inkscape:version="1.1 (c68e22c387, 2021-05-23)"
   xmlns:inkscape="http://www.inkscape.org/namespaces/inkscape"
   xmlns:sodipodi="http://sodipodi.sourceforge.net/DTD/sodipodi-0.dtd"
   xmlns="http://www.w3.org/2000/svg"
   xmlns:svg="http://www.w3.org/2000/svg">
  <defs
     id="defs6" />
  <sodipodi:namedview
     id="namedview4"
     pagecolor="#ffffff"
     bordercolor="#999999"
     borderopacity="1"
     inkscape:pageshadow="0"
     inkscape:pageopacity="0"
     inkscape:pagecheckerboard="0"
     showgrid="false"
     inkscape:zoom="1"
     inkscape:cx="-94.5"
     inkscape:cy="-6.5"
     inkscape:window-width="1920"
     inkscape:window-height="1001"
     inkscape:window-x="-9"
     inkscape:window-y="-9"
     inkscape:window-maximized="1"
     inkscape:current-layer="layer1" />
  <g
     inkscape:groupmode="layer"
     id="layer1"
     inkscape:label="Image 1"
     style="display:inline;opacity:1">
    <path
       style="fill:#e8ceb0;fill-opacity:1;stroke:#e8ceb0;stroke-width:0.219399;stroke-linecap:butt;stroke-linejoin:miter;stroke-miterlimit:4;stroke-dasharray:none;stroke-opacity:1"
       d="m 15.486611,55.060057 c 1.711072,-0.465499 3.33877,-0.455185 4.952594,-0.647898 0.264356,-1.131446 0.117466,-2.139522 -0.03977,-3.144488 L 9.720651,48.602304 C 5.9411115,46.668295 -6.9537167,39.852493 11.409376,32.615708 23.189672,28.467241 37.106853,27.100345 46.197087,25.860814 56.495014,25.016537 71.731851,22.503787 74.269717,21.899968 83.590354,20.037451 87.99307,19.39665 90.455321,18.861447 96.42223,17.709376 103.15015,16.383244 106.62043,15.983778 l 20.05462,-2.728554 33.39524,-3.144483 16.71752,-2.228997 11.94108,-1.19411 11.38384,-1.43293 8.19953,-1.343373 c 3.26984,-0.533152 5.91881,-1.535309 9.15484,-2.278752 1.12777,-0.252092 2.20818,-0.570467 3.38331,-0.756265 6.21091,-1.000117 9.77109,0.0825 9.95088,3.821141 -6.99751,1.425056 -14.51488,2.816043 -21.77257,4.314979 l -15.20497,2.929275 c 6.20741,-0.743002 12.25498,-1.28031 18.62809,-2.229002 10.22152,-1.435856 9.1581,-1.503075 13.65482,-2.298575 l 4.18949,-0.664037 c 0.0832,1.457543 0.12591,2.646728 0.19702,3.405587 0.25109,2.618014 2.20266,2.357401 4.94996,0.832922 2.75229,-1.509009 5.66351,0.137841 7.41866,1.589967 4.34553,3.635719 0.93316,8.438104 0.11367,10.198995 -0.66243,1.371882 -2.28982,4.226208 -3.3088,4.696832 -17.93453,2.029126 -36.06301,5.742623 -53.99756,8.384192 16.72063,-1.749146 33.53098,-4.215894 50.14355,-5.100474 -3.07548,3.609408 -8.93102,5.559175 -15.70876,6.892526 -10.19242,1.932578 -20.2411,2.795356 -30.29838,4.221311 -7.92924,1.017097 -13.72026,2.282253 -20.5804,3.463784 -12.24474,2.08333 -23.371,3.515084 -36.73423,6.249973 -4.93482,0.99447 -8.88985,2.059635 -14.80448,2.983414 L 97.75946,57.552538 84.218436,59.45807 56.047981,63.80082 c -2.964653,0.46908 -6.074742,0.8008 -8.893944,1.40726 -8.167438,1.61614 -11.766125,0.89059 -15.221372,0.82657 -6.569062,-0.14193 -9.606966,0.33775 -14.410442,0.50662 l -6.22543,0.29924 c 0.541931,-6.58473 -5.4016129,-8.940786 4.189833,-11.780453 z"
       id="path1395"
       sodipodi:nodetypes="ccccccccccccccccccccccccccccccccccccccccccc" />
    <path
       style="fill:#493423;fill-opacity:1;stroke:#493423;stroke-width:0.146266;stroke-linecap:butt;stroke-linejoin:miter;stroke-miterlimit:4;stroke-dasharray:none;stroke-opacity:1"
       d="m 36.927989,4.390267 h 4.787921 c 6.214288,8.919551 13.167595,17.469576 19.816536,26.171809 l 0.193923,0.290886 c 3.107498,-4.57593 5.356699,-7.780971 7.886215,-12.427244 2.117865,-4.144073 5.787198,-11.303272 -1.54397,-13.375457 l -3.327235,0.07131 -0.04572,-0.617063 19.711628,-0.137123 -0.03428,0.548502 -2.125423,0.137127 c -4.806438,2.427169 -8.949524,8.885497 -12.501057,14.773241 -2.291949,4.2135 -5.635146,8.712034 -8.004009,11.996297 l -0.02734,16.650412 c 0.418966,4.462304 2.451214,5.294719 4.799358,5.416402 l 2.477701,0.117011 -0.06853,0.617054 H 50.869011 v -0.685622 c 1.063063,0.161358 2.082923,0.149908 3.085297,0.0685 2.909842,-0.320209 4.165021,-2.295065 4.319422,-5.370712 l 0.137109,-16.706215 z"
       id="path14949"
       sodipodi:nodetypes="ccccccccccccccccccccccc" />
    <path
       style="fill:#493423;fill-opacity:1;stroke:#493423;stroke-width:0.219399;stroke-linecap:butt;stroke-linejoin:miter;stroke-miterlimit:4;stroke-dasharray:none;stroke-opacity:1"
       d="M 93.376249,4.228926 H 97.25471 L 96.75993,36.86589 c 0.0778,13.370537 7.11572,17.221579 15.72521,17.937302 10.99724,0.914205 20.77025,-2.298004 20.97841,-16.931724 l -0.0914,-33.641181 3.3824,0.0914 -0.36568,32.361361 c -0.0991,6.830623 -3.28353,15.70557 -11.29119,17.471139 -9.07641,2.001202 -17.31666,3.081703 -26.31285,-4.09533 -0.9018,-0.719442 -4.777431,-4.599323 -4.826801,-10.212728 z"
       id="path27603"
       sodipodi:nodetypes="cccsccccsscc" />
    <path
       style="fill:#493423;fill-opacity:1;stroke:#493423;stroke-width:0.219399;stroke-linecap:butt;stroke-linejoin:miter;stroke-miterlimit:4;stroke-dasharray:none;stroke-opacity:1"
       d="m 145.85047,4.275997 h 17.55191 c 0.34476,0.243775 0.25574,0.487555 0,0.731334 -0.8696,0.06114 -1.8846,-0.02314 -2.51394,0.137117 -4.70345,1.641646 -4.47224,4.066182 -4.5251,6.079182 l -0.16603,36.877884 c 0.0893,5.441553 3.44166,5.775874 4.32545,5.767801 l 3.06245,0.04575 -0.0228,0.868455 -17.55192,0.02283 c -0.50412,-0.304727 -0.45895,-0.609445 0.11427,-0.914163 l 2.14829,0.02274 v 0 c 4.13872,0.0061 4.81336,-2.513212 4.92725,-6.993351 l 0.14634,-35.743752 c -0.67713,-2.746906 -0.92046,-5.797474 -5.1193,-6.079181 -0.83745,-0.02713 -1.61491,-0.01822 -2.37682,0 z"
       id="path43186"
       sodipodi:nodetypes="cccccccccccccccccc" />
    <path
       style="fill:#493423;fill-opacity:1;stroke:#493423;stroke-width:0.219399;stroke-linecap:butt;stroke-linejoin:miter;stroke-miterlimit:4;stroke-dasharray:none;stroke-opacity:1"
       d="m 189.04464,54.577791 4.41084,0.02283 -25.21947,-30.73872 -2.27397,2.433962 z"
       id="path48425" />
    <path
       style="fill:#493423;fill-opacity:1;stroke:#493423;stroke-width:0.219399;stroke-linecap:butt;stroke-linejoin:miter;stroke-miterlimit:4;stroke-dasharray:none;stroke-opacity:1"
       d="m 172.97363,4.269325 20.5047,0.05239 -0.0115,0.651342 -3.96518,0.07999 c -4.10014,1.46496 -8.07881,4.764003 -12.13531,8.891627 -6.98563,7.108144 -18.86747,20.970105 -21.01166,23.561143 l 0.009,-1.691195 18.72729,-20.540137 c 3.46564,-3.897318 6.89279,-9.515959 0.63025,-9.970883 l -2.84458,-0.193926 z"
       id="path50255"
       sodipodi:nodetypes="ccccscccccc" />
    <path
       style="fill:#493423;fill-opacity:1;stroke:#493423;stroke-width:0.731328px;stroke-linecap:butt;stroke-linejoin:miter;stroke-opacity:1"
       d="m 202.93991,4.138875 h 3.65666 l -0.0458,50.461767 h -3.24528 z"
       id="path53463" />
    <text
       xml:space="preserve"
       style="font-style:normal;font-variant:normal;font-weight:normal;font-stretch:normal;font-size:14.134px;line-height:1.25;font-family:'Century Gothic';-inkscape-font-specification:'Century Gothic, Normal';font-variant-ligatures:none;font-variant-caps:normal;font-variant-numeric:normal;font-variant-east-asian:normal;letter-spacing:3.14471px;fill:#000000;fill-opacity:0.731557;stroke-width:0.0736132"
       x="50.975494"
       y="73.807877"
       id="text62353"><tspan
         sodipodi:role="line"
         id="tspan62351"
         x="50.975494"
         y="73.807877"
         style="font-style:normal;font-variant:normal;font-weight:normal;font-stretch:normal;font-size:14.134px;font-family:'Century Gothic';-inkscape-font-specification:'Century Gothic, Normal';font-variant-ligatures:none;font-variant-caps:normal;font-variant-numeric:normal;font-variant-east-asian:normal;fill:#000000;fill-opacity:0.731557;stroke-width:0.0736132">BRAND FASHION</tspan></text>
  </g>
</svg>
